<svg xmlns="http://www.w3.org/2000/svg" xmlns:xlink="http://www.w3.org/1999/xlink" width="500" zoomAndPan="magnify" viewBox="0 0 375 374.999991" height="500" preserveAspectRatio="xMidYMid meet" version="1.0"><defs><g/><clipPath id="09777e7f03"><path d="M 43.839844 43.839844 L 331.160156 43.839844 L 331.160156 331.160156 L 43.839844 331.160156 Z M 43.839844 43.839844 " clip-rule="nonzero"/></clipPath><clipPath id="c460459a2f"><path d="M 187.5 43.839844 C 108.15625 43.839844 43.839844 108.15625 43.839844 187.5 C 43.839844 266.84375 108.15625 331.160156 187.5 331.160156 C 266.84375 331.160156 331.160156 266.84375 331.160156 187.5 C 331.160156 108.15625 266.84375 43.839844 187.5 43.839844 Z M 187.5 43.839844 " clip-rule="nonzero"/></clipPath><clipPath id="5a55516baa"><path d="M 49.390625 49.390625 L 325.609375 49.390625 L 325.609375 325.609375 L 49.390625 325.609375 Z M 49.390625 49.390625 " clip-rule="nonzero"/></clipPath><clipPath id="57c307119e"><path d="M 187.5 325.609375 C 150.625 325.609375 115.90625 311.257812 89.851562 285.148438 C 63.742188 259.09375 49.390625 224.375 49.390625 187.5 C 49.390625 150.625 63.742188 115.90625 89.851562 89.851562 C 115.90625 63.742188 150.625 49.390625 187.5 49.390625 C 224.375 49.390625 259.09375 63.742188 285.148438 89.851562 C 311.257812 115.960938 325.609375 150.625 325.609375 187.5 C 325.609375 224.375 311.257812 259.09375 285.148438 285.148438 C 259.09375 311.257812 224.375 325.609375 187.5 325.609375 Z M 187.5 57.671875 C 152.835938 57.671875 120.210938 71.195312 95.703125 95.703125 C 71.195312 120.210938 57.671875 152.835938 57.671875 187.5 C 57.671875 222.164062 71.195312 254.789062 95.703125 279.296875 C 120.210938 303.804688 152.835938 317.328125 187.5 317.328125 C 222.164062 317.328125 254.789062 303.804688 279.296875 279.296875 C 303.804688 254.789062 317.328125 222.164062 317.328125 187.5 C 317.328125 152.835938 303.804688 120.210938 279.296875 95.703125 C 254.789062 71.195312 222.164062 57.671875 187.5 57.671875 Z M 187.5 57.671875 " clip-rule="nonzero"/></clipPath><clipPath id="caf1258435"><path d="M 137.285156 129.851562 L 237.785156 129.851562 L 237.785156 230.347656 L 137.285156 230.347656 Z M 137.285156 129.851562 " clip-rule="nonzero"/></clipPath></defs><g clip-path="url(#09777e7f03)"><g clip-path="url(#c460459a2f)"><path fill="#dbb7ab" d="M 43.839844 43.839844 L 331.160156 43.839844 L 331.160156 331.160156 L 43.839844 331.160156 Z M 43.839844 43.839844 " fill-opacity="1" fill-rule="nonzero"/></g></g><g clip-path="url(#5a55516baa)"><g clip-path="url(#57c307119e)"><path fill="#ffffff" d="M 49.390625 49.390625 L 325.609375 49.390625 L 325.609375 325.609375 L 49.390625 325.609375 Z M 49.390625 49.390625 " fill-opacity="1" fill-rule="nonzero"/></g></g><g clip-path="url(#caf1258435)"><path fill="#ffffff" d="M 185.332031 130.15625 C 182.648438 130.613281 180.089844 132.511719 178.851562 134.941406 C 177.304688 137.929688 177.128906 143.90625 178.417969 147.753906 C 179.332031 150.414062 180.371094 152.183594 181.941406 153.753906 L 183.207031 155.023438 L 182.902344 156.945312 C 182.625 158.894531 181.789062 160.996094 180.925781 161.960938 C 179.890625 163.125 178.015625 164.316406 176.140625 164.972656 C 171.101562 166.773438 167.023438 169.277344 163.984375 172.492188 C 159.707031 176.976562 155.78125 185.40625 154.515625 192.878906 C 153.933594 196.246094 153.882812 197.738281 154.3125 198.347656 C 154.996094 199.234375 161.503906 199.132812 166.390625 198.117188 C 170.140625 197.335938 173.964844 195.484375 175.988281 193.484375 L 176.796875 192.648438 L 176.796875 193.410156 C 176.796875 194.472656 176.117188 198.296875 175.507812 200.652344 C 174.191406 205.792969 171.507812 209.945312 168.289062 211.84375 L 167.253906 212.453125 L 165.199219 211.589844 C 162.515625 210.425781 158.921875 209.3125 156.3125 208.777344 C 153.375 208.171875 148.386719 208.347656 146.4375 209.109375 C 144.589844 209.84375 144.132812 210.300781 144.132812 211.488281 C 144.132812 215.285156 148.539062 221.238281 154.742188 225.847656 L 156.84375 227.390625 L 147.578125 227.390625 C 138.636719 227.390625 138.285156 227.417969 137.800781 227.898438 C 137.523438 228.175781 137.296875 228.582031 137.296875 228.78125 C 137.296875 228.984375 137.523438 229.390625 137.800781 229.667969 C 138.308594 230.175781 138.636719 230.175781 187.433594 230.175781 C 236.226562 230.175781 236.554688 230.175781 237.0625 229.667969 C 237.695312 229.035156 237.695312 228.53125 237.0625 227.898438 C 236.582031 227.417969 236.226562 227.390625 227.261719 227.390625 L 217.996094 227.390625 L 220.121094 225.820312 C 222.78125 223.84375 226.097656 220.679688 227.617188 218.652344 C 229.265625 216.476562 230.503906 213.792969 230.65625 211.996094 C 230.785156 210.601562 230.757812 210.476562 230.101562 209.96875 C 228.125 208.425781 223.035156 207.890625 218.476562 208.753906 C 215.917969 209.261719 211.945312 210.527344 209.359375 211.691406 L 207.613281 212.453125 L 206.574219 211.84375 C 203.359375 209.945312 200.703125 205.867188 199.332031 200.675781 C 198.75 198.449219 198.066406 194.5 198.066406 193.386719 L 198.066406 192.652344 L 198.902344 193.484375 C 200.878906 195.488281 204.371094 197.183594 208.195312 198.042969 C 211.007812 198.652344 216.828125 199.15625 218.652344 198.929688 C 220.757812 198.652344 220.957031 198.371094 220.757812 195.789062 C 220.402344 191.230469 218.90625 185.992188 216.554688 181.128906 C 214.578125 177 213.160156 174.898438 210.730469 172.34375 C 207.589844 169.074219 204.828125 167.304688 199.789062 165.355469 C 196.597656 164.113281 195.359375 163.378906 194.167969 162.035156 C 192.902344 160.667969 192.320312 159.277344 191.941406 156.898438 L 191.636719 154.972656 L 192.648438 154.035156 C 195.664062 151.199219 197.308594 146.742188 197.308594 141.476562 C 197.28125 135.144531 194.726562 131.320312 189.8125 130.285156 C 187.890625 129.878906 187.15625 129.851562 185.332031 130.15625 Z M 190.851562 133.371094 C 192.902344 134.433594 194.09375 136.359375 194.546875 139.296875 C 195.382812 144.765625 193.003906 151.148438 189.410156 152.972656 C 186.699219 154.363281 183.609375 152.667969 181.734375 148.769531 C 180.570312 146.3125 180.21875 144.640625 180.21875 141.550781 C 180.21875 136.714844 181.761719 134.03125 185.15625 132.917969 C 186.320312 132.535156 189.738281 132.8125 190.851562 133.371094 Z M 189.382812 157.808594 C 190.117188 162.566406 193.410156 166.113281 198.574219 167.757812 C 202.222656 168.921875 206.046875 171.328125 208.730469 174.113281 C 212.757812 178.34375 216.125 185.257812 217.542969 192.371094 C 217.847656 193.765625 218.074219 195.234375 218.074219 195.589844 C 218.074219 196.222656 218.023438 196.246094 216.429688 196.246094 C 209.414062 196.246094 203.4375 194.320312 200.449219 191.105469 C 196.75 187.179688 193.738281 181.152344 192.496094 175.203125 C 192.167969 173.761719 191.816406 172.417969 191.6875 172.242188 C 191.359375 171.863281 190.167969 171.835938 189.761719 172.242188 C 189.308594 172.695312 189.382812 173.8125 190.066406 176.621094 C 190.929688 180.117188 191.789062 182.472656 193.511719 185.863281 C 194.90625 188.601562 195.003906 188.929688 195.15625 191.054688 C 195.96875 202.121094 198.804688 209.414062 203.867188 213.261719 L 204.703125 213.894531 L 202.980469 214.859375 C 197.917969 217.667969 192.472656 221.367188 189.234375 224.203125 C 188.320312 224.988281 187.535156 225.621094 187.460938 225.621094 C 187.382812 225.621094 186.296875 224.757812 185.027344 223.695312 C 182.320312 221.417969 176.417969 217.417969 172.773438 215.390625 L 170.136719 213.898438 L 171 213.261719 C 176.113281 209.363281 178.875 202.273438 179.734375 190.804688 C 179.890625 188.726562 180.015625 188.347656 181.027344 186.523438 C 182.925781 183.179688 184.726562 178.496094 185.660156 174.519531 C 185.941406 173.332031 185.914062 173.128906 185.535156 172.699219 C 185.054688 172.167969 184.242188 172.039062 183.710938 172.394531 C 183.535156 172.496094 183.105469 173.710938 182.75 175.078125 C 181.128906 181.308594 177.710938 187.890625 174.265625 191.386719 C 171.378906 194.324219 165.226562 196.246094 158.746094 196.246094 L 156.742188 196.246094 L 156.921875 194.652344 C 157.175781 192.5 158.363281 187.890625 159.300781 185.535156 C 163.050781 176.113281 167.632812 171.175781 175.507812 168.113281 C 176.976562 167.53125 178.75 166.769531 179.433594 166.441406 C 181.152344 165.554688 183.410156 163.351562 184.21875 161.757812 C 184.925781 160.3125 185.660156 157.804688 185.660156 156.742188 C 185.660156 156.136719 185.714844 156.109375 187.382812 156.109375 L 189.105469 156.109375 Z M 157.554688 211.792969 C 162.566406 213.085938 168.773438 215.972656 174.925781 219.820312 C 178.316406 221.921875 183.304688 225.59375 184.371094 226.734375 L 184.976562 227.390625 L 161.78125 227.390625 L 159.328125 225.769531 C 154.210938 222.351562 149.957031 218.351562 148.132812 215.210938 C 147.199219 213.667969 146.691406 212.070312 146.996094 211.769531 C 147.097656 211.691406 147.753906 211.464844 148.488281 211.285156 C 150.4375 210.78125 154.566406 211.007812 157.554688 211.792969 Z M 226.25 211.285156 C 227.0625 211.464844 227.796875 211.691406 227.871094 211.769531 C 228.175781 212.070312 227.644531 213.667969 226.734375 215.210938 C 224.882812 218.378906 220.578125 222.429688 215.488281 225.769531 L 213.035156 227.390625 L 189.890625 227.390625 L 190.496094 226.734375 C 191.5625 225.59375 196.550781 221.921875 199.96875 219.792969 C 203.917969 217.289062 210.957031 213.792969 214.25 212.703125 C 219.035156 211.082031 223.289062 210.578125 226.25 211.285156 Z M 226.25 211.285156 " fill-opacity="1" fill-rule="nonzero"/></g><g fill="#ffffff" fill-opacity="1"><g transform="translate(122.374465, 265.654319)"><g><path d="M 13.28125 -8 L 15.6875 -8 L 15.6875 -2 C 14.84375 -1.363281 13.847656 -0.851562 12.703125 -0.46875 C 11.566406 -0.0820312 10.453125 0.109375 9.359375 0.109375 C 6.953125 0.109375 4.921875 -0.679688 3.265625 -2.265625 C 1.617188 -3.859375 0.796875 -5.816406 0.796875 -8.140625 C 0.796875 -10.460938 1.628906 -12.410156 3.296875 -13.984375 C 4.972656 -15.566406 7.046875 -16.359375 9.515625 -16.359375 C 10.660156 -16.359375 11.785156 -16.148438 12.890625 -15.734375 C 14.003906 -15.328125 14.96875 -14.773438 15.78125 -14.078125 L 14.21875 -12.046875 C 12.882812 -13.285156 11.316406 -13.90625 9.515625 -13.90625 C 7.859375 -13.90625 6.453125 -13.347656 5.296875 -12.234375 C 4.148438 -11.117188 3.578125 -9.753906 3.578125 -8.140625 C 3.578125 -6.515625 4.15625 -5.140625 5.3125 -4.015625 C 6.46875 -2.898438 7.875 -2.34375 9.53125 -2.34375 C 10.789062 -2.34375 12.039062 -2.71875 13.28125 -3.46875 Z M 13.28125 -8 "/></g></g></g><g fill="#ffffff" fill-opacity="1"><g transform="translate(139.797498, 265.654319)"><g><path d="M 12.65625 -3.671875 L 4.4375 -3.671875 L 2.890625 0 L 0.015625 0 L 7.21875 -16.28125 L 10.03125 -16.28125 L 17.140625 0 L 14.21875 0 Z M 11.609375 -6.125 L 8.53125 -13.359375 L 5.46875 -6.125 Z M 11.609375 -6.125 "/></g></g></g><g fill="#ffffff" fill-opacity="1"><g transform="translate(156.964654, 265.654319)"><g><path d="M 2.140625 -16.28125 L 9.21875 -16.28125 C 10.90625 -16.28125 12.238281 -15.921875 13.21875 -15.203125 C 14.195312 -14.484375 14.6875 -13.488281 14.6875 -12.21875 C 14.6875 -11.300781 14.425781 -10.519531 13.90625 -9.875 C 13.394531 -9.226562 12.695312 -8.796875 11.8125 -8.578125 C 12.90625 -8.398438 13.757812 -7.945312 14.375 -7.21875 C 15 -6.488281 15.3125 -5.570312 15.3125 -4.46875 C 15.3125 -3.070312 14.78125 -1.976562 13.71875 -1.1875 C 12.664062 -0.394531 11.21875 0 9.375 0 L 2.140625 0 Z M 4.890625 -13.84375 L 4.890625 -9.53125 L 9.078125 -9.53125 C 9.941406 -9.53125 10.617188 -9.722656 11.109375 -10.109375 C 11.609375 -10.503906 11.859375 -11.039062 11.859375 -11.71875 C 11.859375 -12.40625 11.613281 -12.929688 11.125 -13.296875 C 10.644531 -13.660156 9.960938 -13.84375 9.078125 -13.84375 Z M 4.890625 -7.125 L 4.890625 -2.4375 L 9.078125 -2.4375 C 10.160156 -2.4375 11 -2.640625 11.59375 -3.046875 C 12.195312 -3.460938 12.5 -4.050781 12.5 -4.8125 C 12.5 -5.53125 12.191406 -6.09375 11.578125 -6.5 C 10.972656 -6.914062 10.140625 -7.125 9.078125 -7.125 Z M 4.890625 -7.125 "/></g></g></g><g fill="#ffffff" fill-opacity="1"><g transform="translate(173.387428, 265.654319)"><g><path d="M 12.46875 0 L 9.5 -4.9375 C 9.34375 -4.914062 9.09375 -4.90625 8.75 -4.90625 L 4.890625 -4.90625 L 4.890625 0 L 2.140625 0 L 2.140625 -16.28125 L 8.75 -16.28125 C 10.820312 -16.28125 12.429688 -15.796875 13.578125 -14.828125 C 14.734375 -13.859375 15.3125 -12.488281 15.3125 -10.71875 C 15.3125 -9.414062 15.019531 -8.316406 14.4375 -7.421875 C 13.851562 -6.523438 13.019531 -5.863281 11.9375 -5.4375 L 15.59375 0 Z M 4.890625 -7.375 L 8.75 -7.375 C 11.382812 -7.375 12.703125 -8.46875 12.703125 -10.65625 C 12.703125 -12.757812 11.382812 -13.8125 8.75 -13.8125 L 4.890625 -13.8125 Z M 4.890625 -7.375 "/></g></g></g><g fill="#ffffff" fill-opacity="1"><g transform="translate(190.205653, 265.654319)"><g><path d="M 4.890625 0 L 2.140625 0 L 2.140625 -16.28125 L 4.890625 -16.28125 Z M 4.890625 0 "/></g></g></g><g fill="#ffffff" fill-opacity="1"><g transform="translate(197.230688, 265.654319)"><g><path d="M 13.765625 -13.8125 L 4.890625 -13.8125 L 4.890625 -9.421875 L 12.84375 -9.421875 L 12.84375 -6.953125 L 4.890625 -6.953125 L 4.890625 -2.46875 L 14.046875 -2.46875 L 14.046875 0 L 2.140625 0 L 2.140625 -16.28125 L 13.765625 -16.28125 Z M 13.765625 -13.8125 "/></g></g></g><g fill="#ffffff" fill-opacity="1"><g transform="translate(212.490376, 265.654319)"><g><path d="M 4.890625 -2.484375 L 11.9375 -2.484375 L 11.9375 0 L 2.140625 0 L 2.140625 -16.28125 L 4.890625 -16.28125 Z M 4.890625 -2.484375 "/></g></g></g><g fill="#ffffff" fill-opacity="1"><g transform="translate(224.912136, 265.654319)"><g><path d="M 4.890625 -2.484375 L 11.9375 -2.484375 L 11.9375 0 L 2.140625 0 L 2.140625 -16.28125 L 4.890625 -16.28125 Z M 4.890625 -2.484375 "/></g></g></g><g fill="#ffffff" fill-opacity="1"><g transform="translate(237.333896, 265.654319)"><g><path d="M 13.765625 -13.8125 L 4.890625 -13.8125 L 4.890625 -9.421875 L 12.84375 -9.421875 L 12.84375 -6.953125 L 4.890625 -6.953125 L 4.890625 -2.46875 L 14.046875 -2.46875 L 14.046875 0 L 2.140625 0 L 2.140625 -16.28125 L 13.765625 -16.28125 Z M 13.765625 -13.8125 "/></g></g></g><g fill="#ffffff" fill-opacity="1"><g transform="translate(135.054151, 297.904317)"><g><path d="M 16.265625 0 L 13.5625 0 L 4.890625 -11.671875 L 4.890625 0 L 2.140625 0 L 2.140625 -16.28125 L 4.84375 -16.28125 L 13.5625 -4.578125 L 13.5625 -16.28125 L 16.265625 -16.28125 Z M 16.265625 0 "/></g></g></g><g fill="#ffffff" fill-opacity="1"><g transform="translate(153.477433, 297.904317)"><g><path d="M 4.890625 0 L 2.140625 0 L 2.140625 -16.28125 L 4.890625 -16.28125 Z M 4.890625 0 "/></g></g></g><g fill="#ffffff" fill-opacity="1"><g transform="translate(160.502468, 297.904317)"><g><path d="M 13.765625 -13.8125 L 4.890625 -13.8125 L 4.890625 -9.421875 L 12.84375 -9.421875 L 12.84375 -6.953125 L 4.890625 -6.953125 L 4.890625 -2.46875 L 14.046875 -2.46875 L 14.046875 0 L 2.140625 0 L 2.140625 -16.28125 L 13.765625 -16.28125 Z M 13.765625 -13.8125 "/></g></g></g><g fill="#ffffff" fill-opacity="1"><g transform="translate(175.762156, 297.904317)"><g><path d="M 4.890625 -2.484375 L 11.9375 -2.484375 L 11.9375 0 L 2.140625 0 L 2.140625 -16.28125 L 4.890625 -16.28125 Z M 4.890625 -2.484375 "/></g></g></g><g fill="#ffffff" fill-opacity="1"><g transform="translate(188.183916, 297.904317)"><g><path d="M 7.484375 -16.40625 C 9.597656 -16.40625 11.5 -15.847656 13.1875 -14.734375 L 12.046875 -12.3125 C 10.390625 -13.3125 8.800781 -13.8125 7.28125 -13.8125 C 6.457031 -13.8125 5.804688 -13.664062 5.328125 -13.375 C 4.859375 -13.082031 4.625 -12.664062 4.625 -12.125 C 4.625 -11.582031 4.84375 -11.117188 5.28125 -10.734375 C 5.71875 -10.359375 6.257812 -10.078125 6.90625 -9.890625 C 7.5625 -9.710938 8.269531 -9.488281 9.03125 -9.21875 C 9.789062 -8.945312 10.492188 -8.660156 11.140625 -8.359375 C 11.796875 -8.054688 12.335938 -7.582031 12.765625 -6.9375 C 13.191406 -6.300781 13.40625 -5.523438 13.40625 -4.609375 C 13.40625 -3.179688 12.832031 -2.039062 11.6875 -1.1875 C 10.550781 -0.332031 9.078125 0.09375 7.265625 0.09375 C 6.015625 0.09375 4.804688 -0.132812 3.640625 -0.59375 C 2.484375 -1.0625 1.472656 -1.691406 0.609375 -2.484375 L 1.796875 -4.859375 C 2.617188 -4.097656 3.519531 -3.507812 4.5 -3.09375 C 5.488281 -2.6875 6.425781 -2.484375 7.3125 -2.484375 C 8.269531 -2.484375 9.015625 -2.65625 9.546875 -3 C 10.085938 -3.351562 10.359375 -3.84375 10.359375 -4.46875 C 10.359375 -5.019531 10.140625 -5.484375 9.703125 -5.859375 C 9.265625 -6.242188 8.71875 -6.523438 8.0625 -6.703125 C 7.414062 -6.890625 6.710938 -7.109375 5.953125 -7.359375 C 5.191406 -7.617188 4.484375 -7.890625 3.828125 -8.171875 C 3.179688 -8.460938 2.640625 -8.925781 2.203125 -9.5625 C 1.773438 -10.195312 1.5625 -10.960938 1.5625 -11.859375 C 1.5625 -13.242188 2.101562 -14.347656 3.1875 -15.171875 C 4.269531 -15.992188 5.703125 -16.40625 7.484375 -16.40625 Z M 7.484375 -16.40625 "/></g></g></g><g fill="#ffffff" fill-opacity="1"><g transform="translate(202.652704, 297.904317)"><g><path d="M 3.28125 -13.984375 C 4.9375 -15.566406 6.984375 -16.359375 9.421875 -16.359375 C 11.859375 -16.359375 13.90625 -15.566406 15.5625 -13.984375 C 17.21875 -12.410156 18.046875 -10.460938 18.046875 -8.140625 C 18.046875 -5.816406 17.21875 -3.859375 15.5625 -2.265625 C 13.90625 -0.679688 11.859375 0.109375 9.421875 0.109375 C 6.984375 0.109375 4.9375 -0.679688 3.28125 -2.265625 C 1.625 -3.859375 0.796875 -5.816406 0.796875 -8.140625 C 0.796875 -10.460938 1.625 -12.410156 3.28125 -13.984375 Z M 9.453125 -13.890625 C 7.835938 -13.890625 6.453125 -13.332031 5.296875 -12.21875 C 4.148438 -11.113281 3.578125 -9.753906 3.578125 -8.140625 C 3.578125 -6.523438 4.15625 -5.15625 5.3125 -4.03125 C 6.46875 -2.90625 7.84375 -2.34375 9.4375 -2.34375 C 11.039062 -2.34375 12.40625 -2.90625 13.53125 -4.03125 C 14.664062 -5.15625 15.234375 -6.523438 15.234375 -8.140625 C 15.234375 -9.753906 14.664062 -11.113281 13.53125 -12.21875 C 12.40625 -13.332031 11.046875 -13.890625 9.453125 -13.890625 Z M 9.453125 -13.890625 "/></g></g></g><g fill="#ffffff" fill-opacity="1"><g transform="translate(221.494701, 297.904317)"><g><path d="M 16.265625 0 L 13.5625 0 L 4.890625 -11.671875 L 4.890625 0 L 2.140625 0 L 2.140625 -16.28125 L 4.84375 -16.28125 L 13.5625 -4.578125 L 13.5625 -16.28125 L 16.265625 -16.28125 Z M 16.265625 0 "/></g></g></g><g fill="#ffffff" fill-opacity="1"><g transform="translate(83.946393, 163.257106)"><g><path d="M 3.453125 -6.15625 C 4.003906 -6.914062 4.175781 -7.546875 3.96875 -8.046875 C 3.757812 -8.554688 3.257812 -9.117188 2.46875 -9.734375 L 1.6875 -10.359375 L -1.203125 -12.65625 L -11.703125 -13.703125 C -13.523438 -13.878906 -14.847656 -14.175781 -15.671875 -14.59375 L -16.859375 -13 L -17.96875 -13.875 L -12.8125 -20.453125 L -11.984375 -19.796875 C -13.023438 -18.460938 -13.164062 -17.5 -12.40625 -16.90625 C -11.96875 -16.5625 -11.25 -16.34375 -10.25 -16.25 L -8.40625 -16.046875 C -5.78125 -15.753906 -3.597656 -15.578125 -1.859375 -15.515625 L -1.828125 -15.5625 C -2.523438 -17.082031 -3.539062 -19.351562 -4.875 -22.375 L -5.4375 -23.703125 C -5.988281 -24.921875 -6.316406 -25.828125 -6.421875 -26.421875 L -7.953125 -24.359375 L -9.0625 -25.234375 L -4.96875 -30.453125 L -4.140625 -29.796875 C -4.703125 -28.941406 -4.945312 -28.054688 -4.875 -27.140625 C -4.8125 -26.222656 -4.445312 -24.992188 -3.78125 -23.453125 L -0.234375 -15.46875 C 0.585938 -14.800781 1.460938 -14.097656 2.390625 -13.359375 C 3.316406 -12.617188 3.976562 -12.101562 4.375 -11.8125 C 5.269531 -11.113281 5.921875 -10.566406 6.328125 -10.171875 L 7.875 -12.359375 L 9 -11.484375 L 4.296875 -5.484375 Z M 3.453125 -6.15625 "/></g></g></g><g fill="#ffffff" fill-opacity="1"><g transform="translate(101.304282, 141.97404)"><g><path d="M 10.59375 -7.625 C 8.539062 -6.019531 6.476562 -5.132812 4.40625 -4.96875 C 2.34375 -4.8125 0.429688 -5.191406 -1.328125 -6.109375 C -3.085938 -7.035156 -4.585938 -8.289062 -5.828125 -9.875 C -7.003906 -11.382812 -7.8125 -13.117188 -8.25 -15.078125 C -8.695312 -17.035156 -8.613281 -19 -8 -20.96875 C -7.394531 -22.9375 -6.140625 -24.671875 -4.234375 -26.171875 C -2.265625 -27.703125 -0.234375 -28.539062 1.859375 -28.6875 C 3.953125 -28.832031 5.894531 -28.453125 7.6875 -27.546875 C 9.488281 -26.648438 10.976562 -25.445312 12.15625 -23.9375 C 13.332031 -22.4375 14.144531 -20.703125 14.59375 -18.734375 C 15.050781 -16.765625 14.972656 -14.789062 14.359375 -12.8125 C 13.742188 -10.84375 12.488281 -9.113281 10.59375 -7.625 Z M 9.828125 -8.71875 C 11.148438 -9.757812 11.988281 -11.023438 12.34375 -12.515625 C 12.695312 -14.015625 12.648438 -15.546875 12.203125 -17.109375 C 11.753906 -18.679688 11.019531 -20.125 10 -21.4375 C 8.863281 -22.894531 7.5 -24.09375 5.90625 -25.03125 C 4.320312 -25.976562 2.691406 -26.484375 1.015625 -26.546875 C -0.648438 -26.617188 -2.15625 -26.128906 -3.5 -25.078125 C -4.832031 -24.035156 -5.679688 -22.765625 -6.046875 -21.265625 C -6.421875 -19.765625 -6.375 -18.21875 -5.90625 -16.625 C -5.4375 -15.039062 -4.691406 -13.59375 -3.671875 -12.28125 C -2.617188 -10.9375 -1.316406 -9.78125 0.234375 -8.8125 C 1.785156 -7.84375 3.410156 -7.300781 5.109375 -7.1875 C 6.816406 -7.082031 8.390625 -7.59375 9.828125 -8.71875 Z M 9.828125 -8.71875 "/></g></g></g><g fill="#ffffff" fill-opacity="1"><g transform="translate(127.441023, 122.720576)"><g><path d="M 11.734375 -4.5 C 9.742188 -3.644531 7.800781 -3.304688 5.90625 -3.484375 C 4.019531 -3.660156 2.3125 -4.351562 0.78125 -5.5625 C -0.738281 -6.769531 -1.960938 -8.441406 -2.890625 -10.578125 C -3.722656 -12.535156 -4.117188 -14.546875 -4.078125 -16.609375 C -4.035156 -18.671875 -3.460938 -20.578125 -2.359375 -22.328125 C -1.265625 -24.085938 0.378906 -25.441406 2.578125 -26.390625 C 3.648438 -26.859375 4.800781 -27.1875 6.03125 -27.375 C 7.257812 -27.5625 8.40625 -27.570312 9.46875 -27.40625 L 8.71875 -28.796875 L 10.359375 -29.5 L 13.296875 -22.671875 L 12.234375 -22.21875 C 11.304688 -23.976562 10.023438 -25.117188 8.390625 -25.640625 C 6.765625 -26.171875 5.070312 -26.054688 3.3125 -25.296875 C 1.894531 -24.691406 0.78125 -23.734375 -0.03125 -22.421875 C -0.84375 -21.109375 -1.28125 -19.582031 -1.34375 -17.84375 C -1.414062 -16.101562 -1.0625 -14.328125 -0.28125 -12.515625 C 0.519531 -10.648438 1.578125 -9.128906 2.890625 -7.953125 C 4.203125 -6.773438 5.640625 -6.03125 7.203125 -5.71875 C 8.773438 -5.40625 10.335938 -5.582031 11.890625 -6.25 C 12.753906 -6.613281 13.582031 -7.113281 14.375 -7.75 C 15.164062 -8.382812 15.820312 -9.109375 16.34375 -9.921875 L 13.53125 -16.453125 L 11.5 -15.453125 L 10.9375 -16.75 L 17.671875 -19.640625 L 18.09375 -18.65625 C 17.144531 -18.25 16.707031 -17.628906 16.78125 -16.796875 C 16.851562 -15.972656 17.085938 -15.101562 17.484375 -14.1875 L 19.4375 -9.640625 L 18.640625 -9.296875 C 17.804688 -8.941406 16.847656 -8.222656 15.765625 -7.140625 C 15.265625 -6.640625 14.632812 -6.144531 13.875 -5.65625 C 13.125 -5.175781 12.410156 -4.789062 11.734375 -4.5 Z M 11.734375 -4.5 "/></g></g></g><g fill="#ffffff" fill-opacity="1"><g transform="translate(156.855994, 111.231693)"><g><path d="M -0.375 -1.03125 C 0.144531 -1.125 0.546875 -1.316406 0.828125 -1.609375 C 1.117188 -1.898438 1.328125 -2.257812 1.453125 -2.6875 C 1.585938 -3.125 1.726562 -3.757812 1.875 -4.59375 L 2.046875 -5.546875 L 5.5625 -24.625 L 6.3125 -24.75 L 16.578125 -7.765625 C 16.898438 -7.222656 17.203125 -6.632812 17.484375 -6 C 17.773438 -5.363281 17.945312 -4.832031 18 -4.40625 L 20.15625 -4.890625 L 20.390625 -3.484375 L 13.078125 -2.234375 L 12.890625 -3.296875 C 14.148438 -3.535156 14.695312 -4.15625 14.53125 -5.15625 C 14.457031 -5.5625 14.257812 -6.039062 13.9375 -6.59375 L 12.296875 -9.40625 L 4.015625 -7.796875 C 3.859375 -6.867188 3.6875 -5.664062 3.5 -4.1875 C 3.394531 -3.445312 3.253906 -2.664062 3.078125 -1.84375 L 5.5625 -2.390625 L 5.796875 -0.984375 L -0.1875 0.03125 Z M 11.65625 -10.515625 L 8.34375 -16.234375 L 6.21875 -19.9375 L 6.15625 -19.921875 L 5.453125 -16.0625 L 4.546875 -10.90625 L 4.28125 -9.25 Z M 11.65625 -10.515625 "/></g></g></g><g fill="#ffffff" fill-opacity="1"><g transform="translate(184.456337, 107.714902)"><g/></g></g><g fill="#ffffff" fill-opacity="1"><g transform="translate(200.202021, 107.318106)"><g><path d="M 7.15625 -15.71875 L 7.046875 -17.046875 C 6.898438 -18.734375 6.835938 -19.820312 6.859375 -20.3125 L 5.078125 -20.671875 L 5.390625 -22.0625 L 13.046875 -20.265625 L 12.8125 -19.234375 C 11.945312 -19.390625 11.300781 -19.382812 10.875 -19.21875 C 10.457031 -19.0625 10.1875 -18.707031 10.0625 -18.15625 C 9.9375 -17.65625 9.898438 -17.023438 9.953125 -16.265625 C 10.003906 -14.753906 10.144531 -13.054688 10.375 -11.171875 C 10.40625 -10.835938 10.441406 -10.4375 10.484375 -9.96875 C 10.523438 -9.5 10.578125 -8.957031 10.640625 -8.34375 C 10.648438 -7.863281 10.691406 -7.335938 10.765625 -6.765625 C 10.835938 -6.191406 10.890625 -5.785156 10.921875 -5.546875 C 11.066406 -4.304688 11.171875 -3.328125 11.234375 -2.609375 L 11.296875 -2.59375 C 12.046875 -3.925781 12.800781 -5.210938 13.5625 -6.453125 C 14.882812 -8.722656 16.320312 -11.113281 17.875 -13.625 C 19.488281 -16.25 20.46875 -17.878906 20.8125 -18.515625 L 21.8125 -18.28125 C 21.875 -17.363281 21.992188 -15.910156 22.171875 -13.921875 C 22.347656 -11.941406 22.476562 -10.507812 22.5625 -9.625 C 22.769531 -7.65625 22.898438 -6.269531 22.953125 -5.46875 C 22.992188 -4.863281 23.066406 -3.953125 23.171875 -2.734375 C 23.316406 -1.398438 23.410156 -0.269531 23.453125 0.65625 L 23.546875 0.671875 C 24.441406 -0.859375 25.191406 -2.117188 25.796875 -3.109375 C 27.585938 -5.910156 29.082031 -8.332031 30.28125 -10.375 C 30.6875 -11.101562 31.046875 -11.710938 31.359375 -12.203125 C 32.015625 -13.171875 32.519531 -13.859375 32.875 -14.265625 L 30.328125 -14.765625 L 30.640625 -16.15625 L 37.0625 -14.65625 L 36.828125 -13.625 C 36.046875 -13.707031 35.429688 -13.679688 34.984375 -13.546875 C 34.546875 -13.410156 34.101562 -13.070312 33.65625 -12.53125 C 33.21875 -12 32.601562 -11.109375 31.8125 -9.859375 L 29.078125 -5.4375 C 26.191406 -0.707031 23.910156 2.941406 22.234375 5.515625 L 21.265625 5.296875 L 19.3125 -12.96875 L 9.8125 2.625 L 8.90625 2.40625 Z M 7.15625 -15.71875 "/></g></g></g><g fill="#ffffff" fill-opacity="1"><g transform="translate(237.827533, 118.183839)"><g><path d="M 2.078125 -0.171875 C 2.765625 0.140625 3.320312 0.222656 3.75 0.078125 C 4.1875 -0.0664062 4.519531 -0.328125 4.75 -0.703125 C 4.988281 -1.078125 5.351562 -1.757812 5.84375 -2.75 L 12.0625 -15.3125 C 12.457031 -16.125 12.835938 -16.804688 13.203125 -17.359375 L 11.03125 -18.28125 L 11.65625 -19.546875 L 18.203125 -16.3125 L 17.734375 -15.359375 C 17.046875 -15.679688 16.484375 -15.765625 16.046875 -15.609375 C 15.609375 -15.460938 15.273438 -15.203125 15.046875 -14.828125 C 14.816406 -14.453125 14.457031 -13.769531 13.96875 -12.78125 L 7.859375 -0.421875 C 7.347656 0.597656 6.9375 1.351562 6.625 1.84375 L 8.765625 2.75 L 8.140625 4.03125 L 1.59375 0.796875 Z M 2.078125 -0.171875 "/></g></g></g><g fill="#ffffff" fill-opacity="1"><g transform="translate(254.156307, 126.529819)"><g><path d="M 6.046875 3.203125 C 6.804688 3.734375 7.4375 3.890625 7.9375 3.671875 C 8.4375 3.453125 8.988281 2.945312 9.59375 2.15625 L 10.1875 1.359375 L 20.140625 -11.734375 L 17.4375 -13.71875 C 16.375 -14.53125 15.34375 -14.75 14.34375 -14.375 C 13.34375 -14.007812 12.253906 -13.050781 11.078125 -11.5 L 10.140625 -12.21875 L 14.40625 -17.5625 L 29.5 -6.171875 L 25.53125 -0.59375 L 24.546875 -1.328125 C 25.347656 -2.429688 25.894531 -3.378906 26.1875 -4.171875 C 26.476562 -4.972656 26.503906 -5.707031 26.265625 -6.375 C 26.035156 -7.050781 25.484375 -7.722656 24.609375 -8.390625 L 22.40625 -10.046875 L 11.734375 4.03125 C 11.046875 4.945312 10.5 5.601562 10.09375 6 L 12.328125 7.53125 L 11.46875 8.671875 L 5.390625 4.0625 Z M 6.046875 3.203125 "/></g></g></g><g fill="#ffffff" fill-opacity="1"><g transform="translate(275.886041, 143.650014)"><g><path d="M 1.96875 0.6875 C 2.457031 1.269531 2.925781 1.582031 3.375 1.625 C 3.832031 1.675781 4.242188 1.578125 4.609375 1.328125 C 4.984375 1.078125 5.597656 0.609375 6.453125 -0.078125 L 17.328125 -8.921875 C 18.035156 -9.492188 18.664062 -9.953125 19.21875 -10.296875 L 17.640625 -12.046875 L 18.734375 -12.953125 L 23.34375 -7.28125 L 22.53125 -6.609375 C 22.03125 -7.171875 21.546875 -7.476562 21.078125 -7.53125 C 20.617188 -7.582031 20.203125 -7.484375 19.828125 -7.234375 C 19.460938 -6.984375 18.851562 -6.507812 18 -5.8125 L 13.828125 -2.421875 L 21.15625 6.578125 L 26.4375 2.28125 C 27.144531 1.707031 27.769531 1.242188 28.3125 0.890625 L 26.75 -0.84375 L 27.84375 -1.75 L 32.4375 3.921875 L 31.625 4.59375 C 31.125 4.019531 30.644531 3.707031 30.1875 3.65625 C 29.726562 3.613281 29.3125 3.71875 28.9375 3.96875 C 28.570312 4.21875 27.960938 4.691406 27.109375 5.390625 L 16.421875 14.078125 C 15.523438 14.804688 14.835938 15.320312 14.359375 15.625 L 15.9375 17.359375 L 14.828125 18.25 L 10.234375 12.578125 L 11.078125 11.890625 C 11.566406 12.472656 12.035156 12.785156 12.484375 12.828125 C 12.941406 12.878906 13.351562 12.78125 13.71875 12.53125 C 14.09375 12.28125 14.707031 11.8125 15.5625 11.125 L 20.15625 7.390625 L 12.71875 -1.515625 L 7.3125 2.875 C 6.414062 3.601562 5.734375 4.117188 5.265625 4.421875 L 6.84375 6.15625 L 5.734375 7.046875 L 1.125 1.375 Z M 1.96875 0.6875 "/></g></g></g></svg>